<?xml version="1.0" encoding="utf-8"?>
<!-- Generator: Adobe Illustrator 28.0.0, SVG Export Plug-In . SVG Version: 6.00 Build 0)  -->
<svg version="1.1" id="Camada_1" xmlns="http://www.w3.org/2000/svg" xmlns:xlink="http://www.w3.org/1999/xlink" x="0px" y="0px"
	 viewBox="0 0 1024 1024" style="enable-background:new 0 0 1024 1024;" xml:space="preserve">
<style type="text/css">
	.st0{fill:#E5F5FF;}
</style>
<path id="Snow" class="st0" d="M864.25,672.27L805.8,638.5c10.58-10.9,22.71-20.16,36-27.51c18.2-10.26,24.63-33.33,14.37-51.52
	c-10.14-17.98-32.81-24.51-50.96-14.69c-25.38,14.05-47.87,32.77-66.28,55.19l-151.48-87.6l151.45-87.44
	c18.41,22.42,40.9,41.15,66.28,55.19c18.2,10.26,41.26,3.83,51.52-14.37c10.26-18.2,3.83-41.26-14.37-51.52
	c-0.19-0.11-0.38-0.21-0.57-0.31c-13.29-7.35-25.42-16.62-36-27.51l58.45-33.77c18.42-9.85,25.37-32.77,15.52-51.19
	s-32.77-25.37-51.19-15.52c-0.72,0.39-1.43,0.79-2.12,1.23l-58.45,33.75c-4.16-14.61-6.14-29.76-5.88-44.96
	c0.46-20.88-16.1-38.19-36.98-38.65c-0.04,0-0.08,0-0.12,0h-0.7c-20.62,0-37.44,16.51-37.82,37.12
	c-0.53,28.98,4.43,57.81,14.61,84.95l-151.45,87.49V271.99c28.62-4.73,56.08-14.84,80.93-29.79c17.89-10.78,23.66-34.03,12.88-51.92
	s-34.03-23.66-51.92-12.88c-13.03,7.83-27.14,13.69-41.88,17.38v-57.2c0-20.89-16.93-37.82-37.82-37.82S474,116.69,474,137.58v57.2
	c-14.74-3.7-28.86-9.55-41.88-17.38c-17.89-10.78-41.14-5.02-51.92,12.88c-10.78,17.89-5.02,41.14,12.88,51.92
	c24.85,14.96,52.31,25.07,80.93,29.79v174.87l-151.45-87.49c10.2-27.15,15.17-55.98,14.65-84.98
	c-0.38-20.61-17.21-37.12-37.82-37.12h-0.74c-20.89,0.39-37.5,17.63-37.12,38.52v0.01c0.28,15.22-1.7,30.39-5.86,45.03l-58.45-33.66
	c-17.94-10.7-41.16-4.83-51.86,13.11c-10.7,17.94-4.83,41.16,13.11,51.86c0.31,0.18,0.62,0.36,0.93,0.54l58.45,33.77
	c-10.58,10.89-22.71,20.16-36,27.51c-18.37,9.95-25.2,32.9-15.25,51.27s32.9,25.2,51.27,15.25c0.19-0.1,0.38-0.21,0.57-0.31
	c25.38-14.05,47.87-32.77,66.28-55.19L436.2,512.4l-151.5,87.42c-18.41-22.42-40.9-41.14-66.28-55.19
	c-18.2-10.26-41.26-3.82-51.52,14.37c-10.26,18.2-3.82,41.26,14.37,51.52c0.19,0.11,0.38,0.21,0.56,0.31
	c13.29,7.35,25.42,16.62,36,27.51l-58.49,33.92c-18.24,10.19-24.76,33.23-14.57,51.47c10.19,18.24,33.23,24.76,51.47,14.57
	c0.31-0.17,0.62-0.35,0.93-0.54l58.45-33.75c4.16,14.61,6.14,29.76,5.88,44.96c-0.36,20.86,16.24,38.08,37.1,38.48h0.7
	c20.62,0,37.44-16.51,37.82-37.12c0.53-28.98-4.43-57.81-14.61-84.95l151.45-87.49v174.87c-28.62,4.73-56.08,14.84-80.93,29.79
	c-17.89,10.78-23.66,34.03-12.88,51.92s34.03,23.66,51.92,12.88c13.03-7.83,27.14-13.69,41.88-17.38v57.2
	c0,20.89,16.93,37.82,37.82,37.82s37.82-16.93,37.82-37.82v-57.2c14.74,3.7,28.86,9.55,41.88,17.38
	c17.89,10.78,41.14,5.02,51.92-12.88c10.78-17.89,5.02-41.14-12.88-51.92c-24.85-14.96-52.31-25.07-80.93-29.79V577.9l151.45,87.49
	c-10.2,27.15-15.17,55.98-14.65,84.98c0.38,20.61,17.21,37.12,37.82,37.12h0.74c20.89-0.39,37.5-17.63,37.12-38.52v-0.01
	c-0.28-15.22,1.7-30.39,5.86-45.03l58.45,33.75c17.58,11.29,40.98,6.19,52.26-11.39c11.29-17.58,6.19-40.98-11.39-52.26
	C866.31,673.4,865.29,672.81,864.25,672.27z"/>
</svg>
