<?xml version="1.0" encoding="utf-8"?>
<!-- Generator: Adobe Illustrator 28.0.0, SVG Export Plug-In . SVG Version: 6.00 Build 0)  -->
<svg version="1.1" id="Camada_1" xmlns="http://www.w3.org/2000/svg" xmlns:xlink="http://www.w3.org/1999/xlink" x="0px" y="0px"
	 viewBox="0 0 1024 1024" style="enable-background:new 0 0 1024 1024;" xml:space="preserve">
<style type="text/css">
	.st0{fill:#E5F5FF;}
	.st1{fill:#FFDA00;}
	.st2{fill:#FFFFFF;}
</style>
<path id="Pingos_00000079483030157613539420000015595561308723058106_" class="st0" d="M408.43,770.92
	c3.22-8.58,12.87-12.87,21.59-9.65c8.58,3.22,13.01,12.87,9.79,21.45l-20.51,54.3c-3.22,8.58-12.87,13.01-21.45,9.65
	c-8.72-3.22-13.01-12.87-9.79-21.45L408.43,770.92z M733.71,771.05c3.22-8.58,12.74-13.01,21.45-9.79
	c8.58,3.22,13.01,12.87,9.79,21.45l-37.41,100.83c-3.22,8.58-12.87,13.01-21.45,9.79c-8.72-3.22-13.14-12.87-9.92-21.45
	C696.17,871.88,733.71,771.05,733.71,771.05z M297.41,771.05c3.22-8.58,12.87-13.01,21.45-9.79c8.58,3.22,13.01,12.87,9.79,21.45
	l-37.41,100.83c-3.22,8.58-12.87,13.01-21.45,9.79c-8.72-3.22-13.01-12.87-9.79-21.45L297.41,771.05z M525.75,771.05
	c3.22-8.58,12.87-13.01,21.45-9.79c8.72,3.22,13.01,12.87,9.79,21.45l-37.41,100.83c-3.22,8.58-12.87,13.01-21.45,9.79
	c-8.58-3.22-13.01-12.87-9.79-21.45L525.75,771.05z M633.55,770.92c3.35-8.58,13.01-12.87,21.59-9.65s13.01,12.87,9.79,21.45
	l-20.38,54.3c-3.35,8.58-13.01,13.01-21.59,9.65c-8.58-3.22-13.01-12.87-9.79-21.45L633.55,770.92z"/>
<g id="Sol_00000104692982268126784380000003432066350204454021_">
	<circle class="st1" cx="308.81" cy="331.9" r="113.61"/>
	<path class="st1" d="M308.81,191.55c7.38,0,13.37-5.98,13.37-13.37v-33.42c0-7.38-5.98-13.37-13.37-13.37
		c-7.39,0-13.37,5.99-13.37,13.37v33.42C295.44,185.57,301.42,191.55,308.81,191.55z"/>
	<path class="st1" d="M190.68,232.65c5.25,5.12,13.63,5.12,18.88,0c5.2-5.22,5.2-13.66,0-18.88L186,190.05
		c-4.74-5.78-13.27-6.62-19.05-1.87c-5.78,4.74-6.62,13.27-1.87,19.05c0.56,0.68,1.19,1.31,1.87,1.87L190.68,232.65z"/>
	<path class="st1" d="M168.46,331.9c0-7.38-5.98-13.37-13.37-13.37h-33.42c-7.38,0-13.37,5.98-13.37,13.37
		c0,7.38,5.98,13.37,13.37,13.37h33.42C162.48,345.27,168.46,339.28,168.46,331.9z"/>
	<path class="st1" d="M190.68,431.14l-23.72,23.56c-5.22,5.27-5.22,13.77,0,19.05c2.58,2.43,5.98,3.8,9.52,3.84
		c3.55-0.01,6.96-1.39,9.52-3.84l23.56-23.72c4.95-5.47,4.54-13.92-0.93-18.88C203.54,426.53,195.77,426.53,190.68,431.14z"/>
	<path class="st1" d="M308.81,472.25c-7.38,0-13.37,5.98-13.37,13.37v33.42c0,7.38,5.98,13.37,13.37,13.37
		c7.39,0,13.37-5.98,13.37-13.37v-33.42C322.17,478.23,316.19,472.25,308.81,472.25z"/>
	<path class="st1" d="M426.93,431.14c-5.47-4.95-13.92-4.54-18.88,0.93c-4.62,5.09-4.62,12.85,0,17.95l23.56,23.72
		c2.57,2.45,5.97,3.83,9.52,3.84c3.54-0.05,6.94-1.42,9.52-3.84c5.22-5.27,5.22-13.77,0-19.05L426.93,431.14z"/>
	<path class="st1" d="M495.93,318.53h-33.42c-7.38,0-13.37,5.98-13.37,13.37c0,7.38,5.98,13.37,13.37,13.37h33.42
		c7.38,0,13.37-5.98,13.37-13.37C509.3,324.52,503.31,318.53,495.93,318.53z"/>
	<path class="st1" d="M417.57,236.5c3.51,0.03,6.88-1.35,9.36-3.84l23.72-23.56c4.74-5.78,3.9-14.31-1.87-19.05
		c-4.99-4.09-12.18-4.09-17.17,0l-23.56,23.72c-5.2,5.22-5.2,13.66,0,18.88C410.57,235.19,414,236.57,417.57,236.5z"/>
</g>
<path id="Nuvem_00000124846890241204262480000010320255517642011834_" class="st2" d="M773.69,437.86c0-2.21,0.37-4.42,0.37-6.64
	c0-119.84-95.51-216.82-213.32-216.82c-85,0-158.01,50.52-192.3,123.53c-14.93-7.56-31.71-11.98-49.41-11.98
	c-54.39,0-99.75,40.38-108.41,93.11c-65.27,22.49-111.92,85-111.92,158.56c0,92.56,73.93,167.6,165.02,167.78h510.17l0,0
	c83.34-0.37,150.63-69.14,150.63-153.77C924.7,506.82,857.03,438.05,773.69,437.86z"/>
</svg>
