<?xml version="1.0" encoding="utf-8"?>
<!-- Generator: Adobe Illustrator 28.0.0, SVG Export Plug-In . SVG Version: 6.00 Build 0)  -->
<svg version="1.1" id="Camada_1" xmlns="http://www.w3.org/2000/svg" xmlns:xlink="http://www.w3.org/1999/xlink" x="0px" y="0px"
	 viewBox="0 0 1024 1024" style="enable-background:new 0 0 1024 1024;" xml:space="preserve">
<style type="text/css">
	.st0{fill:#7CBBE7;}
</style>
<g>
	<circle class="st0" cx="513.33" cy="512" r="232.27"/>
	<path class="st0" d="M513.33,225.07c15.09,0,27.33-12.23,27.33-27.33v-68.32c0-15.09-12.23-27.33-27.33-27.33
		S486,114.34,486,129.43v68.32C486,212.84,498.23,225.07,513.33,225.07z"/>
	<path class="st0" d="M271.83,309.1c10.74,10.46,27.86,10.46,38.6,0c10.64-10.67,10.64-27.93,0-38.6L262.27,222
		c-9.69-11.81-27.13-13.53-38.94-3.83c-11.81,9.69-13.53,27.13-3.83,38.94c1.15,1.4,2.43,2.68,3.83,3.83L271.83,309.1z"/>
	<path class="st0" d="M226.4,512c0-15.09-12.23-27.33-27.33-27.33h-68.32c-15.09,0-27.33,12.23-27.33,27.33
		c0,15.09,12.23,27.33,27.33,27.33h68.32C214.17,539.33,226.4,527.09,226.4,512z"/>
	<path class="st0" d="M271.83,714.9l-48.5,48.16c-10.68,10.78-10.68,28.16,0,38.94c5.28,4.96,12.23,7.76,19.47,7.86
		c7.26-0.03,14.22-2.84,19.47-7.86l48.16-48.5c10.13-11.18,9.28-28.46-1.9-38.6C298.11,705.46,282.24,705.46,271.83,714.9z"/>
	<path class="st0" d="M513.33,798.93c-15.09,0-27.33,12.23-27.33,27.33v68.32c0,15.09,12.23,27.33,27.33,27.33
		s27.33-12.23,27.33-27.33v-68.32C540.65,811.16,528.42,798.93,513.33,798.93z"/>
	<path class="st0" d="M754.82,714.9c-11.18-10.13-28.46-9.28-38.6,1.9c-9.44,10.41-9.44,26.28,0,36.7l48.16,48.5
		c5.25,5.01,12.21,7.83,19.47,7.86c7.24-0.1,14.19-2.9,19.47-7.86c10.68-10.78,10.68-28.16,0-38.94L754.82,714.9z"/>
	<path class="st0" d="M895.9,484.67h-68.32c-15.09,0-27.33,12.23-27.33,27.33c0,15.09,12.23,27.33,27.33,27.33h68.32
		c15.09,0,27.33-12.23,27.33-27.33C923.22,496.91,910.99,484.67,895.9,484.67z"/>
	<path class="st0" d="M735.69,316.96c7.17,0.06,14.07-2.77,19.13-7.86l48.5-48.16c9.69-11.81,7.98-29.25-3.83-38.94
		c-10.2-8.37-24.9-8.37-35.11,0l-48.16,48.5c-10.64,10.67-10.64,27.93,0,38.6C721.37,314.28,728.4,317.11,735.69,316.96z"/>
</g>
</svg>
