<?xml version="1.0" encoding="utf-8"?>
<!-- Generator: Adobe Illustrator 28.0.0, SVG Export Plug-In . SVG Version: 6.00 Build 0)  -->
<svg version="1.1" id="Camada_1" xmlns="http://www.w3.org/2000/svg" xmlns:xlink="http://www.w3.org/1999/xlink" x="0px" y="0px"
	 viewBox="0 0 1024 1024" style="enable-background:new 0 0 1024 1024;" xml:space="preserve">
<style type="text/css">
	.st0{fill:#FFFFFF;}
</style>
<path id="NuvemBranca_00000124149629794384494160000009117397363532157075_" class="st0" d="M753.57,472.82
	c0-2.04,0.34-4.07,0.34-6.11c0-110.35-87.94-199.65-196.43-199.65c-78.27,0-145.5,46.52-177.07,113.75
	c-13.75-6.96-29.2-11.04-45.5-11.04c-50.08,0-91.85,37.18-99.83,85.74c-60.1,20.71-103.05,78.27-103.05,146
	c0,85.23,68.08,154.32,151.95,154.49h469.76l0,0c76.74-0.34,138.7-63.66,138.7-141.59C892.62,536.31,830.31,472.99,753.57,472.82z"
	/>
</svg>
