<?xml version="1.0" encoding="utf-8"?>
<!-- Generator: Adobe Illustrator 28.0.0, SVG Export Plug-In . SVG Version: 6.00 Build 0)  -->
<svg version="1.1" id="Camada_1" xmlns="http://www.w3.org/2000/svg" xmlns:xlink="http://www.w3.org/1999/xlink" x="0px" y="0px"
	 viewBox="0 0 1024 1024" style="enable-background:new 0 0 1024 1024;" xml:space="preserve">
<style type="text/css">
	.st0{fill:#282730;}
</style>
<g>
	<circle class="st0" cx="513.3" cy="512" r="232.3"/>
	<path class="st0" d="M513.3,225.1c15.1,0,27.3-12.2,27.3-27.3v-68.3c0-15.1-12.2-27.3-27.3-27.3S486,114.3,486,129.4v68.3
		C486,212.8,498.2,225.1,513.3,225.1z"/>
	<path class="st0" d="M271.8,309.1c10.7,10.5,27.9,10.5,38.6,0c10.6-10.7,10.6-27.9,0-38.6L262.3,222c-9.7-11.8-27.1-13.5-38.9-3.8
		c-11.8,9.7-13.5,27.1-3.8,38.9c1.1,1.4,2.4,2.7,3.8,3.8L271.8,309.1z"/>
	<path class="st0" d="M226.4,512c0-15.1-12.2-27.3-27.3-27.3h-68.3c-15.1,0-27.3,12.2-27.3,27.3c0,15.1,12.2,27.3,27.3,27.3h68.3
		C214.2,539.3,226.4,527.1,226.4,512z"/>
	<path class="st0" d="M271.8,714.9l-48.5,48.2c-10.7,10.8-10.7,28.2,0,38.9c5.3,5,12.2,7.8,19.5,7.9c7.3,0,14.2-2.8,19.5-7.9
		l48.2-48.5c10.1-11.2,9.3-28.5-1.9-38.6C298.1,705.5,282.2,705.5,271.8,714.9z"/>
	<path class="st0" d="M513.3,798.9c-15.1,0-27.3,12.2-27.3,27.3v68.3c0,15.1,12.2,27.3,27.3,27.3s27.3-12.2,27.3-27.3v-68.3
		C540.7,811.2,528.4,798.9,513.3,798.9z"/>
	<path class="st0" d="M754.8,714.9c-11.2-10.1-28.5-9.3-38.6,1.9c-9.4,10.4-9.4,26.3,0,36.7l48.2,48.5c5.2,5,12.2,7.8,19.5,7.9
		c7.2-0.1,14.2-2.9,19.5-7.9c10.7-10.8,10.7-28.2,0-38.9L754.8,714.9z"/>
	<path class="st0" d="M895.9,484.7h-68.3c-15.1,0-27.3,12.2-27.3,27.3c0,15.1,12.2,27.3,27.3,27.3h68.3c15.1,0,27.3-12.2,27.3-27.3
		C923.2,496.9,911,484.7,895.9,484.7z"/>
	<path class="st0" d="M735.7,317c7.2,0.1,14.1-2.8,19.1-7.9l48.5-48.2c9.7-11.8,8-29.2-3.8-38.9c-10.2-8.4-24.9-8.4-35.1,0
		l-48.2,48.5c-10.6,10.7-10.6,27.9,0,38.6C721.4,314.3,728.4,317.1,735.7,317z"/>
</g>
</svg>
