<?xml version="1.0" encoding="utf-8"?>
<!-- Generator: Adobe Illustrator 28.0.0, SVG Export Plug-In . SVG Version: 6.00 Build 0)  -->
<svg version="1.1" id="Camada_1" xmlns="http://www.w3.org/2000/svg" xmlns:xlink="http://www.w3.org/1999/xlink" x="0px" y="0px"
	 viewBox="0 0 1024 1024" style="enable-background:new 0 0 1024 1024;" xml:space="preserve">
<style type="text/css">
	.st0{fill:#E5F5FF;}
	.st1{fill:#FFDA00;}
	.st2{fill:#FFFFFF;}
</style>
<path id="Pingos_00000101808527178673695190000011334100285095153038_" class="st0" d="M411.43,743.92
	c3.22-8.58,12.87-12.87,21.59-9.65c8.58,3.22,13.01,12.87,9.79,21.45l-20.51,54.3c-3.22,8.58-12.87,13.01-21.45,9.65
	c-8.72-3.22-13.01-12.87-9.79-21.45L411.43,743.92z M736.71,744.05c3.22-8.58,12.74-13.01,21.45-9.79
	c8.58,3.22,13.01,12.87,9.79,21.45l-37.41,100.83c-3.22,8.58-12.87,13.01-21.45,9.79c-8.72-3.22-13.14-12.87-9.92-21.45
	C699.17,844.88,736.71,744.05,736.71,744.05z M300.41,744.05c3.22-8.58,12.87-13.01,21.45-9.79c8.58,3.22,13.01,12.87,9.79,21.45
	l-37.41,100.83c-3.22,8.58-12.87,13.01-21.45,9.79c-8.72-3.22-13.01-12.87-9.79-21.45L300.41,744.05z M528.75,744.05
	c3.22-8.58,12.87-13.01,21.45-9.79c8.72,3.22,13.01,12.87,9.79,21.45l-37.41,100.83c-3.22,8.58-12.87,13.01-21.45,9.79
	c-8.58-3.22-13.01-12.87-9.79-21.45L528.75,744.05z M636.55,743.92c3.35-8.58,13.01-12.87,21.59-9.65s13.01,12.87,9.79,21.45
	l-20.38,54.3c-3.35,8.58-13.01,13.01-21.59,9.65c-8.58-3.22-13.01-12.87-9.79-21.45L636.55,743.92z"/>
<path id="Lua_00000129188756823944104300000006110479165284590502_" class="st1" d="M134.23,320.46c-1.22-1.14-3.2-0.05-2.89,1.59
	c12.11,65.34,69.4,114.81,138.25,114.81c77.66,0,140.61-62.95,140.61-140.61c0-74.17-57.42-134.92-130.23-140.24
	c-1.68-0.12-2.55,1.95-1.27,3.05c23.09,19.95,37.67,49.5,37.54,82.45C316,301.33,267.72,349.39,207.9,349.38
	C179.44,349.37,153.55,338.4,134.23,320.46z"/>
<path id="Nuvem_00000177473134822137804270000001346460077391764915_" class="st2" d="M774.01,411.46c0-2.21,0.37-4.42,0.37-6.64
	c0-119.84-95.51-216.82-213.32-216.82c-85,0-158.01,50.52-192.3,123.53c-14.93-7.56-31.71-11.98-49.41-11.98
	c-54.39,0-99.75,40.38-108.41,93.11c-65.27,22.49-111.92,85-111.92,158.56c0,92.56,73.93,167.6,165.02,167.78H774.2l0,0
	c83.34-0.37,150.63-69.14,150.63-153.77C925.01,480.42,857.35,411.65,774.01,411.46z"/>
</svg>
