<?xml version="1.0" encoding="utf-8"?>
<!-- Generator: Adobe Illustrator 28.0.0, SVG Export Plug-In . SVG Version: 6.00 Build 0)  -->
<svg version="1.1" id="Camada_1" xmlns="http://www.w3.org/2000/svg" xmlns:xlink="http://www.w3.org/1999/xlink" x="0px" y="0px"
	 viewBox="0 0 1024 1024" style="enable-background:new 0 0 1024 1024;" xml:space="preserve">
<style type="text/css">
	.st0{fill:#7CBBE7;}
</style>
<path id="Pluviosidade" class="st0" d="M529.5,108.9c-8.7-10.2-24-11.3-34.1-2.6c-1,0.8-1.8,1.7-2.6,2.6
	C428.8,183.6,220.5,442,220.5,633.4c0,178.3,112.3,290.6,290.6,290.6s290.6-112.3,290.6-290.6C801.7,442,593.4,183.6,529.5,108.9z
	 M543.4,819c-13.4,0-24.2-10.8-24.3-24.2c0-2.8,0.5-5.5,1.4-8.1c3.4-9.8,12.7-16.3,23-16.2c66.7-0.1,120.8-54.2,121-121
	c-0.2-10.4,6.4-19.6,16.2-23c12.6-4.5,26.5,2.2,30.9,14.8c0.9,2.6,1.4,5.4,1.4,8.1C712.8,743.1,637,819,543.4,819z"/>
</svg>
