<?xml version="1.0" encoding="utf-8"?>
<!-- Generator: Adobe Illustrator 28.0.0, SVG Export Plug-In . SVG Version: 6.00 Build 0)  -->
<svg version="1.1" id="Camada_1" xmlns="http://www.w3.org/2000/svg" xmlns:xlink="http://www.w3.org/1999/xlink" x="0px" y="0px"
	 viewBox="0 0 1024 1024" style="enable-background:new 0 0 1024 1024;" xml:space="preserve">
<style type="text/css">
	.st0{fill:#E6EFF4;}
	.st1{fill:#FFFFFF;}
	.st2{fill:#FFDA00;}
</style>
<path id="NuvemCinza_00000146464099698419182790000005716666814508336272_" class="st0" d="M666.9,403.9c0-1.9,0.3-3.7,0.3-5.6
	c0-100.8-80.3-182.4-179.4-182.4c-71.5,0-132.9,42.5-161.7,103.9c-12.6-6.4-26.7-10.1-41.6-10.1c-45.7,0-83.9,34-91.2,78.3
	c-54.9,18.9-94.1,71.5-94.1,133.4c0,77.8,62.2,141,138.8,141.1h429.1l0,0c70.1-0.3,126.7-58.2,126.7-129.3
	C793.9,461.9,737,404.1,666.9,403.9z"/>
<path id="NuvemBranca_00000078031165368215493490000012645628126755121340_" class="st1" d="M785.2,443.9c0-2,0.3-4.1,0.3-6.1
	c0-110.4-87.9-199.6-196.4-199.6c-78.3,0-145.5,46.5-177.1,113.8c-13.8-7-29.2-11-45.5-11c-50.1,0-91.9,37.2-99.8,85.7
	c-60.1,20.7-103.1,78.3-103.1,146c0,85.2,68.1,154.3,151.9,154.5h469.8l0,0c76.7-0.3,138.7-63.7,138.7-141.6
	C924.3,507.4,862,444,785.2,443.9z"/>
<path id="Raio" class="st2" d="M363.1,584.7c-2.4,0.2-4.5,1.6-5.7,3.8L297.7,693c-2,3.6-0.8,8.1,2.8,10.2c1.1,0.7,2.4,1,3.8,1h33.5
	l-40.4,94.1c-1.7,3.8,0,8.2,3.8,9.9c2.9,1.3,6.2,0.6,8.4-1.6L443.8,672c2.9-2.9,2.9-7.7,0-10.6c-1.4-1.4-3.3-2.2-5.3-2.2H407
	l38-63.3c2.1-3.5,1-8.1-2.6-10.2c-1.2-0.7-2.5-1.1-3.8-1.1h-74.6C363.6,584.7,363.4,584.7,363.1,584.7z"/>
</svg>
