<?xml version="1.0" encoding="utf-8"?>
<!-- Generator: Adobe Illustrator 28.0.0, SVG Export Plug-In . SVG Version: 6.00 Build 0)  -->
<svg version="1.1" id="Camada_1" xmlns="http://www.w3.org/2000/svg" xmlns:xlink="http://www.w3.org/1999/xlink" x="0px" y="0px"
	 viewBox="0 0 1024 1024" style="enable-background:new 0 0 1024 1024;" xml:space="preserve">
<style type="text/css">
	.st0{fill:#7CBBE7;}
</style>
<path class="st0" d="M512.4,100.4C286.3,100.4,103,283.7,103,509.8c0,58.2,12.2,113.6,34.1,163.8h309l-74.7-149.7
	c-10.1-20.2-1.9-44.7,18.3-54.7l0.3-0.1c20.1-10,44.6-1.8,54.6,18.3l93.2,186.3h349.9c21.9-50.1,34.1-105.5,34.1-163.8
	C921.8,283.7,738.5,100.4,512.4,100.4z M703.7,401.8c-119.1-64.7-263.2-64.6-382.4,0.1c-18.5,10-41.6,4.3-53.3-13.2l-0.1-0.2
	c-13.4-20-6.6-47.1,14.5-58.5c143.4-77.7,316.7-77.7,460,0.1c21.1,11.4,27.8,38.4,14.6,58.4l0,0C745.4,406,722.2,411.8,703.7,401.8z
	"/>
<path class="st0" d="M839.9,755.4c-74.7,99.4-193.6,163.8-327.5,163.8s-252.9-64.3-327.5-163.8H839.9z"/>
</svg>
