<?xml version="1.0" encoding="utf-8"?>
<!-- Generator: Adobe Illustrator 28.0.0, SVG Export Plug-In . SVG Version: 6.00 Build 0)  -->
<svg version="1.1" id="Camada_1" xmlns="http://www.w3.org/2000/svg" xmlns:xlink="http://www.w3.org/1999/xlink" x="0px" y="0px"
	 viewBox="0 0 1024 1024" style="enable-background:new 0 0 1024 1024;" xml:space="preserve">
<style type="text/css">
	.st0{fill:#7CBBE7;}
</style>
<g>
	<path class="st0" d="M292.3,263.8c31.9,0,57.8-25.9,57.8-57.8c0-41.2-57.8-105.7-57.8-105.7s-57.8,64.5-57.8,105.7
		C234.5,237.9,260.4,263.8,292.3,263.8z"/>
	<path class="st0" d="M189.6,164.7c0-25.1-35.2-64.4-35.2-64.4s-35.2,39.3-35.2,64.4c0,19.5,15.8,35.2,35.2,35.2
		S189.6,184.2,189.6,164.7z"/>
	<path class="st0" d="M557.7,146.3v-4.1c0-15.3-12.7-27.6-28.3-27.6c-15.7,0-28.3,12.4-28.3,27.6v4.1
		c-43.9,3.3-85.4,14.5-123.7,31.5c3,9.6,4.8,19.1,4.8,28.1c0,49.5-40.2,89.7-89.7,89.7c-18.7,0-36-5.8-50.4-15.6
		c-53.7,64.2-86.6,146.5-87.4,236.6c1-50.9,42.5-91.9,93.7-91.9c51.8,0,93.8,42,93.8,93.8c0-51.8,42-93.8,93.8-93.8
		c19.6,0,37.7,6,52.7,16.2v372.7c0,59.7,47.8,108.5,107.2,109.9h2.7l0,0c59.4-1.5,107.2-50.2,107.2-109.9c0-22-17.8-39.9-39.9-39.9
		S626,791.5,626,813.6c0,16.2-12.8,29.4-28.8,30.2c-16-0.7-28.8-14-28.8-30.2V442.8c15.5-11.3,34.5-18,55.1-18
		c51.8,0,93.8,42,93.8,93.8c0-51.8,42-93.8,93.8-93.8s93.8,42,93.8,93.8c0,0.6,0.3,1.8,0.3,1.8C904.8,322.6,751.8,160.7,557.7,146.3
		z"/>
</g>
</svg>
