<?xml version="1.0" encoding="utf-8"?>
<!-- Generator: Adobe Illustrator 28.0.0, SVG Export Plug-In . SVG Version: 6.00 Build 0)  -->
<svg version="1.1" id="Camada_1" xmlns="http://www.w3.org/2000/svg" xmlns:xlink="http://www.w3.org/1999/xlink" x="0px" y="0px"
	 viewBox="0 0 1024 1024" style="enable-background:new 0 0 1024 1024;" xml:space="preserve">
<style type="text/css">
	.st0{fill:#FFDA00;}
	.st1{fill:#FFFFFF;}
</style>
<path id="Lua" class="st0" d="M134.46,394.46c-1.22-1.14-3.2-0.05-2.89,1.59c12.11,65.34,69.4,114.81,138.25,114.81
	c77.66,0,140.61-62.95,140.61-140.61c0-74.17-57.42-134.92-130.23-140.24c-1.68-0.12-2.55,1.95-1.27,3.05
	c23.09,19.95,37.67,49.5,37.54,82.45c-0.24,59.82-48.52,107.88-108.34,107.87C179.66,423.37,153.78,412.4,134.46,394.46z"/>
<path id="Nuvem" class="st1" d="M774.24,485.46c0-2.21,0.37-4.42,0.37-6.64C774.6,358.98,679.1,262,561.28,262
	c-85,0-158.01,50.52-192.3,123.53c-14.93-7.56-31.71-11.98-49.41-11.98c-54.39,0-99.75,40.38-108.41,93.11
	c-65.27,22.49-111.92,85-111.92,158.56c0,92.56,73.93,167.6,165.02,167.78h510.17l0,0c83.34-0.37,150.63-69.14,150.63-153.77
	C925.24,554.42,857.57,485.65,774.24,485.46z"/>
</svg>
