<?xml version="1.0" encoding="utf-8"?>
<!-- Generator: Adobe Illustrator 28.0.0, SVG Export Plug-In . SVG Version: 6.00 Build 0)  -->
<svg version="1.1" id="Camada_1" xmlns="http://www.w3.org/2000/svg" xmlns:xlink="http://www.w3.org/1999/xlink" x="0px" y="0px"
	 viewBox="0 0 1024 1024" style="enable-background:new 0 0 1024 1024;" xml:space="preserve">
<style type="text/css">
	.st0{fill:#E6EFF4;}
	.st1{fill:#FFFFFF;}
	.st2{fill:#E5F5FF;}
</style>
<path id="NuvemCinza_00000048489106562545322520000010947135914536468129_" class="st0" d="M666.93,366.94
	c0-1.86,0.31-3.72,0.31-5.58c0-100.79-80.32-182.36-179.41-182.36c-71.49,0-132.89,42.49-161.73,103.89
	c-12.56-6.36-26.67-10.08-41.56-10.08c-45.74,0-83.89,33.96-91.18,78.31c-54.89,18.92-94.12,71.49-94.12,133.36
	c0,77.84,62.18,140.95,138.78,141.11h429.07l0,0c70.09-0.31,126.69-58.15,126.69-129.32C793.93,424.93,737.02,367.09,666.93,366.94z
	"/>
<path id="NuvemBranca_00000055699685601225092500000014805074216306809497_" class="st1" d="M785.23,406.86
	c0-2.04,0.34-4.07,0.34-6.11c0-110.35-87.94-199.65-196.43-199.65c-78.27,0-145.5,46.52-177.07,113.75
	c-13.75-6.96-29.2-11.04-45.5-11.04c-50.08,0-91.85,37.18-99.83,85.74c-60.1,20.71-103.05,78.27-103.05,146
	c0,85.23,68.08,154.32,151.95,154.49H785.4l0,0c76.74-0.34,138.7-63.66,138.7-141.59C924.28,470.36,861.97,407.03,785.23,406.86z"/>
<path id="Pingos" class="st2" d="M436.43,721.92c3.22-8.58,12.87-12.87,21.59-9.65c8.58,3.22,13.01,12.87,9.79,21.45l-20.51,54.3
	c-3.22,8.58-12.87,13.01-21.45,9.65c-8.72-3.22-13.01-12.87-9.79-21.45L436.43,721.92z M761.71,722.05
	c3.22-8.58,12.74-13.01,21.45-9.79c8.58,3.22,13.01,12.87,9.79,21.45l-37.41,100.83c-3.22,8.58-12.87,13.01-21.45,9.79
	c-8.72-3.22-13.14-12.87-9.92-21.45C724.17,822.88,761.71,722.05,761.71,722.05z M325.41,722.05c3.22-8.58,12.87-13.01,21.45-9.79
	c8.58,3.22,13.01,12.87,9.79,21.45l-37.41,100.83c-3.22,8.58-12.87,13.01-21.45,9.79c-8.72-3.22-13.01-12.87-9.79-21.45
	L325.41,722.05z M553.75,722.05c3.22-8.58,12.87-13.01,21.45-9.79c8.72,3.22,13.01,12.87,9.79,21.45l-37.41,100.83
	c-3.22,8.58-12.87,13.01-21.45,9.79s-13.01-12.87-9.79-21.45L553.75,722.05z M661.55,721.92c3.35-8.58,13.01-12.87,21.59-9.65
	s13.01,12.87,9.79,21.45l-20.38,54.3c-3.35,8.58-13.01,13.01-21.59,9.65c-8.58-3.22-13.01-12.87-9.79-21.45L661.55,721.92z"/>
</svg>
