<?xml version="1.0" encoding="utf-8"?>
<!-- Generator: Adobe Illustrator 28.0.0, SVG Export Plug-In . SVG Version: 6.00 Build 0)  -->
<svg version="1.1" id="Camada_1" xmlns="http://www.w3.org/2000/svg" xmlns:xlink="http://www.w3.org/1999/xlink" x="0px" y="0px"
	 viewBox="0 0 1024 1024" style="enable-background:new 0 0 1024 1024;" xml:space="preserve">
<style type="text/css">
	.st0{fill:#282730;}
</style>
<path class="st0" d="M921.7,366.2c0,205.1-112.3,377.4-281.2,433.2c-32.1,12.7-67.1,20-103.8,20c-104.1,0-200.8-58.6-249.7-151.5
	C200.2,748,176.8,839.5,176.4,841.3c-4.2,17.7-20,29.5-37.4,29.5c-3,0-6-0.3-9-1c-20.7-5-33.4-25.8-28.5-46.5
	c15.4-63.3,145.1-363.1,537.8-363.1c14.2,0,25.7-11.5,25.7-25.6s-11.5-25.7-25.7-25.7c-172.3,0-296.7,55.5-384.5,121.3
	c0.3-17.3,2-35,5.7-53C282.1,371.7,366.4,286.3,471.3,262c45.4-10.5,89.3-9.6,129.8,0c89.8,21.4,189.6-11.9,239.5-98.2
	c9.1-15.8,32.1-15.3,39.5,1.3C906.8,224.1,921.7,296.5,921.7,366.2z"/>
</svg>
