<?xml version="1.0" encoding="utf-8"?>
<!-- Generator: Adobe Illustrator 28.0.0, SVG Export Plug-In . SVG Version: 6.00 Build 0)  -->
<svg version="1.1" id="Camada_1" xmlns="http://www.w3.org/2000/svg" xmlns:xlink="http://www.w3.org/1999/xlink" x="0px" y="0px"
	 viewBox="0 0 1024 1024" style="enable-background:new 0 0 1024 1024;" xml:space="preserve">
<style type="text/css">
	.st0{fill:#7CBBE7;}
</style>
<g id="Vento">
	<path class="st0" d="M467.9,539.2c-111.2,0-222.4,0-333.5,0c-4.7,0-9.3-0.2-13.7-1.8c-11.8-4.3-18.5-15.2-17.3-27.9
		c1.1-11.3,9.8-20.6,21.5-22.6c3.3-0.6,6.7-0.6,10.1-0.6c220.7,0,441.3-0.2,662,0.1c33.1,0,60.9-20.3,69.5-50.3
		c8.8-30.5-4-62.5-31.1-78.9c-26.4-15.9-60.3-12.3-83.2,9.1c-7.1,6.6-14.8,10.5-24.6,8.6c-10.5-2-17.4-8.2-20.6-18.4
		c-3.2-10.3-0.6-19.5,7.1-26.7c33.4-31.2,72.6-42.6,116.9-30.8c44.7,11.9,74.2,41.3,86.4,85.9c21.7,79.1-37.5,154-120.9,154.1
		C686.9,539.2,577.4,539.2,467.9,539.2z"/>
	<path class="st0" d="M362.5,639.3c74.6,0,149.2-0.1,223.8,0c51,0.1,91.5,31.5,103.2,79.7c15.9,65.2-36.3,128.8-103.5,126.2
		c-26.2-1-48.8-10.5-67.9-28.5c-11.8-11.1-12.6-27.5-2.3-38.4c10.6-11.2,26.3-11.1,38.4,0.1c16.4,15.2,38.6,18.6,58,8.7
		c18.7-9.5,29.9-30.6,27.1-50.9c-3-21.7-18.3-38.3-39.8-43.1c-4.8-1.1-9.7-0.9-14.5-0.9c-150.7,0-301.4,0-452,0
		c-14.3,0-24.1-5.9-28.3-17.1c-6.2-16.3,4.7-33.5,22.6-35.6c2.5-0.3,5.1-0.2,7.6-0.2C210.8,639.3,286.7,639.3,362.5,639.3z"/>
	<path class="st0" d="M304.6,385.7c-58.1,0-116.2,0-174.3,0c-11.3,0-20-5-24.7-15.4c-4.6-10.2-3.1-19.8,4.2-28.3
		c4.4-5.2,10.1-8.1,17-8.6c2.7-0.2,5.5-0.2,8.2-0.2c112.2,0,224.4,0,336.6,0c20.5,0,36.4-7.9,46.7-25.9c12-21,6.8-48.1-12-63.4
		c-19.2-15.6-47-15.1-65,1.5c-7.6,7-15.7,11.6-26.2,9.3c-10-2.2-17-8.2-20.1-18.2c-3.1-10.2-0.4-19.1,7.1-26.7
		c35.9-36.5,96.5-40.2,136.3-7.5c33.3,27.4,46.2,63.3,35.7,105.2c-10.5,42.2-39,67.3-81.3,76.6c-6.6,1.4-13.4,1.7-20.2,1.7
		C416.6,385.7,360.6,385.7,304.6,385.7z"/>
</g>
</svg>
