<?xml version="1.0" encoding="utf-8"?>
<!-- Generator: Adobe Illustrator 28.0.0, SVG Export Plug-In . SVG Version: 6.00 Build 0)  -->
<svg version="1.1" id="Camada_1" xmlns="http://www.w3.org/2000/svg" xmlns:xlink="http://www.w3.org/1999/xlink" x="0px" y="0px"
	 viewBox="0 0 1024 1024" style="enable-background:new 0 0 1024 1024;" xml:space="preserve">
<style type="text/css">
	.st0{fill:#FFDA00;}
</style>
<circle class="st0" cx="511.53" cy="512.76" r="232.27"/>
<path class="st0" d="M511.53,225.83c15.09,0,27.33-12.23,27.33-27.33v-68.32c0-15.09-12.23-27.33-27.33-27.33
	s-27.33,12.25-27.33,27.34v68.32C484.2,213.6,496.43,225.83,511.53,225.83z"/>
<path class="st0" d="M270.03,309.86c10.74,10.46,27.86,10.46,38.6,0c10.64-10.67,10.64-27.93,0-38.6l-48.16-48.5
	c-9.69-11.81-27.13-13.53-38.94-3.83c-11.81,9.69-13.53,27.13-3.83,38.94c1.15,1.4,2.43,2.68,3.83,3.83L270.03,309.86z"/>
<path class="st0" d="M224.6,512.76c0-15.09-12.23-27.33-27.33-27.33h-68.32c-15.09,0-27.33,12.23-27.33,27.33
	c0,15.09,12.23,27.33,27.33,27.33h68.32C212.37,540.09,224.6,527.85,224.6,512.76z"/>
<path class="st0" d="M270.03,715.66l-48.5,48.16c-10.68,10.78-10.68,28.16,0,38.94c5.28,4.96,12.23,7.76,19.47,7.86
	c7.26-0.03,14.22-2.84,19.47-7.86l48.16-48.5c10.13-11.18,9.28-28.46-1.9-38.6C296.31,706.22,280.44,706.22,270.03,715.66z"/>
<path class="st0" d="M511.53,799.69c-15.09,0-27.33,12.23-27.33,27.33v68.32c0,15.09,12.23,27.33,27.33,27.33
	c15.1,0,27.33-12.23,27.33-27.33v-68.32C538.85,811.92,526.62,799.69,511.53,799.69z"/>
<path class="st0" d="M753.02,715.66c-11.18-10.13-28.46-9.28-38.6,1.9c-9.44,10.41-9.44,26.28,0,36.7l48.16,48.5
	c5.25,5.01,12.21,7.83,19.47,7.86c7.24-0.1,14.19-2.9,19.47-7.86c10.68-10.78,10.68-28.16,0-38.94L753.02,715.66z"/>
<path class="st0" d="M894.1,485.43h-68.32c-15.09,0-27.33,12.23-27.33,27.33c0,15.09,12.23,27.33,27.33,27.33h68.32
	c15.09,0,27.33-12.23,27.33-27.33C921.42,497.67,909.19,485.43,894.1,485.43z"/>
<path class="st0" d="M733.89,317.72c7.17,0.06,14.07-2.77,19.13-7.86l48.5-48.16c9.69-11.81,7.98-29.25-3.83-38.94
	c-10.2-8.37-24.9-8.37-35.11,0l-48.16,48.5c-10.64,10.67-10.64,27.93,0,38.6C719.57,315.04,726.6,317.87,733.89,317.72z"/>
</svg>
