<?xml version="1.0" encoding="utf-8"?>
<!-- Generator: Adobe Illustrator 28.0.0, SVG Export Plug-In . SVG Version: 6.00 Build 0)  -->
<svg version="1.1" id="Camada_1" xmlns="http://www.w3.org/2000/svg" xmlns:xlink="http://www.w3.org/1999/xlink" x="0px" y="0px"
	 viewBox="0 0 1024 1024" style="enable-background:new 0 0 1024 1024;" xml:space="preserve">
<style type="text/css">
	.st0{fill:#7CBBE7;}
</style>
<path class="st0" d="M384.1,831c0,10.1,2.9,20,8.5,28.5l27.6,41.3c8.4,12.7,27.6,23,42.9,23h99.2c15.2,0,34.3-10.3,42.8-23
	l27.5-41.3c4.7-7.1,8.6-19.9,8.6-28.5l0.2-63H383.9L384.1,831z M511.6,100.3c-164,0.5-282.1,133.4-282.1,281.6
	c0,71.4,26.4,136.5,70.1,186.2c26.6,30.3,68.1,93.7,84,147.1c0,0.4,0.1,0.8,0.2,1.3h257.7c0-0.4,0.2-0.8,0.2-1.3
	c15.9-53.4,57.4-116.8,84-147.1c43.7-48.4,70-113.4,70-186.2C795.7,226.7,668.5,99.8,511.6,100.3z M512.6,254.7
	c-71,0-128.7,57.7-128.7,127.2c0,15.6-11.6,27.2-25.7,27.2s-25.7-11.6-25.7-25.7c0-99.3,80.8-178.7,180.1-178.7
	c14.2,0,25.7,11.5,25.7,25.7S526.8,254.7,512.6,254.7z"/>
</svg>
