<?xml version="1.0" encoding="utf-8"?>
<!-- Generator: Adobe Illustrator 28.0.0, SVG Export Plug-In . SVG Version: 6.00 Build 0)  -->
<svg version="1.1" id="Camada_1" xmlns="http://www.w3.org/2000/svg" xmlns:xlink="http://www.w3.org/1999/xlink" x="0px" y="0px"
	 viewBox="0 0 1024 1024" style="enable-background:new 0 0 1024 1024;" xml:space="preserve">
<style type="text/css">
	.st0{fill:#FFDA00;}
	.st1{fill:#FFFFFF;}
</style>
<g id="Sol_00000145052126016061654720000014445836621724224404_">
	<circle class="st0" cx="309.35" cy="405.5" r="113.61"/>
	<path class="st0" d="M309.35,265.15c7.38,0,13.37-5.98,13.37-13.37v-33.42c0-7.38-5.98-13.37-13.37-13.37
		c-7.39,0-13.37,5.99-13.37,13.37v33.42C295.98,259.17,301.96,265.15,309.35,265.15z"/>
	<path class="st0" d="M191.22,306.26c5.25,5.12,13.63,5.12,18.88,0c5.2-5.22,5.2-13.66,0-18.88l-23.56-23.72
		c-4.74-5.78-13.27-6.62-19.05-1.87c-5.78,4.74-6.62,13.27-1.87,19.05c0.56,0.68,1.19,1.31,1.87,1.87L191.22,306.26z"/>
	<path class="st0" d="M169,405.5c0-7.38-5.98-13.37-13.37-13.37h-33.42c-7.38,0-13.37,5.98-13.37,13.37
		c0,7.38,5.98,13.37,13.37,13.37h33.42C163.02,418.87,169,412.88,169,405.5z"/>
	<path class="st0" d="M191.22,504.74L167.5,528.3c-5.22,5.27-5.22,13.77,0,19.05c2.58,2.43,5.98,3.8,9.52,3.84
		c3.55-0.01,6.96-1.39,9.52-3.84l23.56-23.72c4.95-5.47,4.54-13.92-0.93-18.88C204.08,500.13,196.32,500.13,191.22,504.74z"/>
	<path class="st0" d="M309.35,545.85c-7.38,0-13.37,5.98-13.37,13.37v33.42c0,7.38,5.98,13.37,13.37,13.37
		c7.39,0,13.37-5.98,13.37-13.37v-33.42C322.71,551.83,316.73,545.85,309.35,545.85z"/>
	<path class="st0" d="M427.47,504.74c-5.47-4.95-13.92-4.54-18.88,0.93c-4.62,5.09-4.62,12.85,0,17.95l23.56,23.72
		c2.57,2.45,5.97,3.83,9.52,3.84c3.54-0.05,6.94-1.42,9.52-3.84c5.22-5.27,5.22-13.77,0-19.05L427.47,504.74z"/>
	<path class="st0" d="M496.48,392.13h-33.42c-7.38,0-13.37,5.98-13.37,13.37c0,7.38,5.98,13.37,13.37,13.37h33.42
		c7.38,0,13.37-5.98,13.37-13.37C509.84,398.12,503.86,392.13,496.48,392.13z"/>
	<path class="st0" d="M418.11,310.1c3.51,0.03,6.88-1.35,9.36-3.84l23.72-23.56c4.74-5.78,3.9-14.31-1.87-19.05
		c-4.99-4.09-12.18-4.09-17.17,0l-23.56,23.72c-5.2,5.22-5.2,13.66,0,18.88C411.11,308.79,414.55,310.17,418.11,310.1z"/>
</g>
<path id="Nuvem_00000176727703463584885290000005605485060824175258_" class="st1" d="M774.24,511.46c0-2.21,0.37-4.42,0.37-6.64
	C774.6,384.98,679.1,288,561.28,288c-85,0-158.01,50.52-192.3,123.53c-14.93-7.56-31.71-11.98-49.41-11.98
	c-54.39,0-99.75,40.38-108.41,93.11c-65.27,22.49-111.92,85-111.92,158.56c0,92.56,73.93,167.6,165.02,167.78h510.17l0,0
	c83.34-0.37,150.63-69.14,150.63-153.77C925.24,580.42,857.57,511.65,774.24,511.46z"/>
</svg>
