<?xml version="1.0" encoding="utf-8"?>
<!-- Generator: Adobe Illustrator 28.0.0, SVG Export Plug-In . SVG Version: 6.00 Build 0)  -->
<svg version="1.1" id="Camada_1" xmlns="http://www.w3.org/2000/svg" xmlns:xlink="http://www.w3.org/1999/xlink" x="0px" y="0px"
	 viewBox="0 0 1024 1024" style="enable-background:new 0 0 1024 1024;" xml:space="preserve">
<style type="text/css">
	.st0{fill:#7CBBE7;}
</style>
<g>
	<path class="st0" d="M772.2,469.8c0-2.2,0.4-4.4,0.4-6.6c0-118.8-94.7-215-211.5-215c-84.3,0-156.6,50.1-190.7,122.5
		c-14.8-7.5-31.4-11.9-49-11.9c-53.9,0-98.9,40-107.5,92.3c-64.7,22.3-111,84.3-111,157.2c0,91.8,73.3,166.2,163.6,166.3h505.8
		c41.3-0.2,78.7-17.3,105.7-44.9c27-27.6,43.7-65.6,43.7-107.5C922,538.2,854.9,470,772.2,469.8z M342.7,637.9
		c10.7,12,24.7,18,41.9,18c10.7,0,20.3-2.5,28.7-7.5c8.4-5,14.9-12.3,19.5-22h61.6c-6.5,24.9-19.5,44.5-39,58.8
		s-42.8,21.5-70.1,21.5c-22.3,0-42.2-5-59.8-14.9c-17.6-9.9-31.3-23.8-41.1-41.4s-14.7-37.9-14.7-60.6c0-22.7,4.9-43,14.7-60.8
		c9.8-17.8,23.5-31.7,41.1-41.6s37.5-14.9,59.8-14.9c27.3,0,50.7,7.2,70.1,21.6s32.4,34.1,39,59h-61.6c-4.6-9.6-11.1-16.9-19.5-22
		c-8.4-5-18-7.5-28.7-7.5c-17.2,0-31.2,6-41.9,18c-10.7,12-16.1,28.1-16.1,48.2C326.6,609.8,332,625.9,342.7,637.9z M739.4,650.2
		c-10.5,18-24.7,32.1-42.6,42.1c-17.9,10-37.7,15.1-59.3,15.1s-41.4-5-59.5-15.1c-18-10-32.3-24.1-42.9-42.1
		c-10.6-18-15.9-38.3-15.9-60.8s5.3-42.7,15.9-60.6c10.6-17.9,24.9-31.9,42.9-41.9s37.8-15.1,59.5-15.1c21.6,0,41.5,5,59.5,15.1
		c18,10,32.2,24,42.6,41.9c10.4,17.9,15.6,38.1,15.6,60.6S749.9,632.2,739.4,650.2z"/>
	<path class="st0" d="M698.2,589.4c0,20.1-5.5,36.3-16.5,48.5s-25.7,18.3-44.1,18.3c-18.6,0-33.4-6.1-44.4-18.2
		s-16.5-28.3-16.5-48.7c0-20.5,5.5-36.8,16.5-48.8s25.8-18,44.4-18c18.3,0,33,6.1,44.1,18.2C692.6,552.9,698.2,569.1,698.2,589.4z"
		/>
</g>
</svg>
