<?xml version="1.0" encoding="utf-8"?>
<!-- Generator: Adobe Illustrator 28.0.0, SVG Export Plug-In . SVG Version: 6.00 Build 0)  -->
<svg version="1.1" id="Camada_1" xmlns="http://www.w3.org/2000/svg" xmlns:xlink="http://www.w3.org/1999/xlink" x="0px" y="0px"
	 viewBox="0 0 1024 1024" style="enable-background:new 0 0 1024 1024;" xml:space="preserve">
<style type="text/css">
	.st0{fill:#E6EFF4;}
</style>
<path class="st0" d="M368.23,368.07c74.96,0,149.91-0.05,224.87,0.03c24.59,0.03,42.9,17.69,43,41.09
	c0.1,21.91-17.19,40.3-39.06,41.55c-0.96,0.06-1.93,0.06-2.89,0.06c-150.4,0-300.79,0.04-451.19-0.04
	c-25.33-0.01-43.55-19.69-42.06-44.85c1.16-19.54,17.82-36.52,37.41-37.61c9.37-0.52,18.79-0.23,28.19-0.23
	C233.75,368.06,300.99,368.07,368.23,368.07z"/>
<path class="st0" d="M697.57,162.26c60.71,0,121.43-0.04,182.14,0.02c21.27,0.02,37,10.95,42.55,29.2
	c7.17,23.57-7.28,47.85-31.55,52.67c-4.69,0.93-9.56,1.26-14.35,1.26c-119.74,0.07-239.48,0.07-359.22,0.04
	c-23.69-0.01-40.35-12.15-45.14-32.67c-5.48-23.5,10.89-47.08,34.79-49.95c3.81-0.46,7.69-0.54,11.53-0.54
	C578.07,162.25,637.82,162.26,697.57,162.26z"/>
<path class="st0" d="M327.51,861.97c-61.2,0-122.4,0.08-183.59-0.04c-25.8-0.05-43.74-18.18-43.07-43.04
	c0.56-20.77,17.16-37.82,38.64-39.63c2.4-0.2,4.81-0.2,7.22-0.2c120.47-0.01,240.94-0.02,361.4,0c23.6,0,40.69,12.84,44.95,33.61
	c5.09,24.78-13.87,48.96-39.11,49.05c-62.15,0.22-124.3,0.07-186.45,0.07C327.51,861.84,327.51,861.9,327.51,861.97z"/>
<path class="st0" d="M738.41,656.3c-47.96,0-95.92,0.1-143.88-0.05c-17.65-0.06-30.58-8.61-37.6-24.54
	c-6.86-15.58-4.72-30.76,6.59-43.82c7.68-8.86,17.62-14.16,29.62-14.17c97.12-0.07,194.25-0.15,291.37,0.08
	c22.01,0.05,39.56,19.15,39.45,41.59c-0.11,22.34-17.91,40.7-40.23,40.79c-48.44,0.19-96.88,0.06-145.32,0.06
	C738.41,656.25,738.41,656.27,738.41,656.3z"/>
<path class="st0" d="M328.04,573.65c33.96,0,67.92-0.1,101.88,0.04c21.33,0.09,39.24,15.89,41.27,36.01
	c2.22,21.98-11.01,40.88-32.14,45.69c-3.02,0.69-6.2,0.88-9.31,0.88c-68.4,0.05-136.81,0.1-205.21-0.01
	c-17.94-0.03-31.01-8.67-38.02-24.96c-6.74-15.66-4.4-30.79,7.02-43.72c8.13-9.21,18.62-13.99,31.18-13.96
	C259.15,573.71,293.59,573.65,328.04,573.65z"/>
<path class="st0" d="M286.44,162.29c20.47,0,40.95-0.29,61.42,0.08c18.94,0.35,33.86,11.49,39.38,28.5
	c5.36,16.52-0.07,34.35-13.88,45.42c-8.27,6.63-17.96,9.11-28.31,9.14c-39.26,0.09-78.52,0.15-117.78-0.01
	c-20.16-0.09-35.48-10.42-41.78-27.51c-5.89-15.97-1.28-33.97,11.7-45.39c8.36-7.35,18.28-10.3,29.28-10.27
	c19.99,0.06,39.98,0.02,59.97,0.02C286.44,162.28,286.44,162.28,286.44,162.29z"/>
<path class="st0" d="M738.81,861.97c-19.99,0-39.98,0.09-59.98-0.03c-24.91-0.15-42.91-17.25-43.18-40.8
	c-0.27-23.72,17.91-41.86,42.89-42.02c40.22-0.25,80.45-0.25,120.67,0c22.09,0.14,39.89,15.67,42.21,35.98
	c2.43,21.28-10.1,40.19-30.5,45.46c-4.36,1.13-9.05,1.31-13.59,1.34C777.83,862.05,758.32,861.97,738.81,861.97z"/>
<path class="st0" d="M780.49,368.12c7.23,0,14.47-0.21,21.69,0.04c22.13,0.76,39.34,18.64,39.48,40.79
	c0.13,22.1-16.78,40.75-38.67,41.66c-15.4,0.64-30.86,0.61-46.26,0.01c-21.93-0.86-39.08-19.61-38.89-41.57
	c0.19-22.15,17.47-40.11,39.52-40.87C765.06,367.9,772.78,368.13,780.49,368.12z"/>
</svg>
